<?xml version="1.0" encoding="utf-8"?>
<!-- Generator: Adobe Illustrator 16.0.0, SVG Export Plug-In . SVG Version: 6.00 Build 0)  -->
<!DOCTYPE svg PUBLIC "-//W3C//DTD SVG 1.1//EN" "http://www.w3.org/Graphics/SVG/1.1/DTD/svg11.dtd">
<svg version="1.1" id="Publicdomainvectors.org" xmlns="http://www.w3.org/2000/svg" xmlns:xlink="http://www.w3.org/1999/xlink"
	 x="0px" y="0px" width="112.812px" height="112.812px" viewBox="0 0 112.812 112.812" enable-background="new 0 0 112.812 112.812"
	 xml:space="preserve">
<radialGradient id="SVGID_1_" cx="56.4063" cy="56.4053" r="56.4058" gradientUnits="userSpaceOnUse">
	<stop  offset="0" style="stop-color:#FFFFFF"/>
	<stop  offset="0.52" style="stop-color:#00AEEF"/>
	<stop  offset="1" style="stop-color:#2E3464"/>
</radialGradient>
<path fill="url(#SVGID_1_)" d="M55.305,95.014c-0.365,0.123-0.713,0.217-1.044,0.283c-0.152-0.303-0.293-0.634-0.42-0.996
	c-1.007-2.864-3.425-3.631-5.482-3.023l-0.247,1.071c0.293-0.127,4.229-1.732,5.253,3.147c0,0-0.809-0.482-1.921-1.828
	c-1.057-1.279-3.134-1.312-3.334-1.312l-0.073,0.316l0.073-0.316c-0.18-0.088-2.062-0.97-3.572-0.282
	c-1.589,0.722-2.527,0.803-2.527,0.803c3.059-3.939,5.894-0.771,6.102-0.528l0.247-1.071c-1.584-1.447-4.093-1.818-6.253,0.315
	c-0.272,0.27-0.545,0.506-0.813,0.711c-0.27-0.205-0.541-0.441-0.814-0.711c-4.044-3.996-9.315,0.795-7.438,4.982
	c0,0-0.603-3.394,2.889-3.394c3.49,0,5.776,4.02,1.877,6.692c-3.899,2.671-4.959,5.078-2.094,9.194c0,0-3.298-5.439,3.273-8.497
	c0,0,0.554,1.949-1.661,3.852c0,0,2.79-0.854,3.968-2.974c1.177,2.12,3.967,2.974,3.967,2.974c-2.214-1.902-1.66-3.852-1.66-3.852
	c0.954,0.444,1.7,0.938,2.278,1.459c0.748-0.214,1.636-0.332,2.688-0.313c0,0-0.356,1.995-3.181,2.734c0,0,2.882,0.457,4.87-0.935
	c0.128,2.423,2.262,4.412,2.262,4.412c-1.156-2.68,0.195-4.189,0.195-4.189c4.567,5.627-0.781,9.072-0.781,9.072
	c4.379-2.445,4.482-5.073,2.147-9.184s1.482-6.722,4.62-5.192c3.137,1.529,1.108,4.317,1.108,4.317
	C63.329,99.811,60.689,93.194,55.305,95.014z M34.46,92.363c0,0,2.937-3.579,6.113,0.514c0,0-0.938-0.081-2.527-0.803
	C36.458,91.352,34.46,92.363,34.46,92.363z M39.659,102.329c0.554-1.084-0.072-2.095-0.072-2.095
	c1.131-1.421,1.083-2.816,1.083-2.816C41.802,100.957,39.659,102.329,39.659,102.329z M38.769,93.134c0,0,1.022,0.542,2.523,0.885
	c1.501-0.343,2.522-0.885,2.522-0.885s-1.655,1.391-2.522,3.696C40.424,94.524,38.769,93.134,38.769,93.134z M42.925,102.329
	c0,0-2.143-1.372-1.012-4.911c0,0-0.048,1.396,1.084,2.816C42.997,100.234,42.37,101.245,42.925,102.329z M47.81,100.573
	c-0.601,0.089-1.158,0.195-1.671,0.321c-0.405-0.338-0.859-0.678-1.361-1.021c-3.898-2.673-1.612-6.692,1.878-6.692
	c0.481,0,0.885,0.064,1.224,0.176c0.353,0.048,0.743,0.167,1.176,0.378C52.192,95.265,52.486,99.88,47.81,100.573z M48.4,103.593
	c0.972-0.731,0.853-1.915,0.853-1.915c1.64-0.781,2.208-2.056,2.208-2.056C50.927,103.298,48.4,103.593,48.4,103.593z
	 M52.318,103.172c0,0-1.006,0.635-0.983,1.851c0,0-1.324-2.171,1.243-4.856C52.578,100.166,51.924,101.399,52.318,103.172z
	 M52.277,99.365c0.23-2.453-0.648-4.428-0.648-4.428s0.682,0.934,1.88,1.9c1.5,0.35,2.655,0.311,2.655,0.311
	S54.067,97.673,52.277,99.365z M57.278,96.513c-1.744-0.048-2.623-0.387-2.623-0.387c4.649-2.286,5.72,2.218,5.72,2.218
	S59.023,96.56,57.278,96.513z M67.717,90.242c0.002-0.385,0.027-0.743,0.072-1.078c0.335-0.046,0.694-0.07,1.079-0.073
	c3.65-0.021,5.097-2.964,4.529-5.499c2.029,1.622,5.308,1.611,6.928-1.661c0.17-0.345,0.35-0.656,0.538-0.938
	c0.32,0.105,0.654,0.24,1.001,0.407c3.021,1.45,5.452-0.126,6.294-2.351c1.829-1.521,2.527-4.332,0.172-6.716
	c-0.271-0.273-0.507-0.545-0.711-0.813c0.204-0.271,0.44-0.542,0.711-0.814c2.565-2.598,1.509-5.7-0.687-7.091
	c2.582-0.289,4.893-2.615,3.725-6.074c-0.123-0.363-0.216-0.711-0.282-1.043c0.302-0.152,0.633-0.293,0.995-0.42
	c3.162-1.111,3.767-3.944,2.789-6.112c0.218-2.369-1.276-4.851-4.628-4.871c-0.385-0.002-0.743-0.027-1.078-0.073
	c-0.045-0.334-0.07-0.693-0.073-1.078c-0.021-3.65-2.964-5.097-5.499-4.529c1.622-2.029,1.61-5.308-1.661-6.928
	c-0.345-0.17-0.656-0.35-0.938-0.538c0.106-0.32,0.241-0.654,0.407-1.001c1.45-3.021-0.126-5.452-2.351-6.294
	c-1.521-1.829-4.331-2.527-6.716-0.172c-0.273,0.271-0.545,0.507-0.814,0.711c-0.269-0.204-0.541-0.44-0.813-0.711
	c-2.597-2.565-5.7-1.509-7.091,0.687c-0.289-2.583-2.615-4.893-6.074-3.725c-0.364,0.123-0.711,0.216-1.043,0.282
	c-0.152-0.302-0.293-0.633-0.42-0.995c-1.111-3.163-3.944-3.767-6.113-2.789c-2.368-0.218-4.85,1.275-4.87,4.628
	c-0.002,0.385-0.027,0.743-0.072,1.078c-0.335,0.046-0.694,0.07-1.079,0.073c-3.65,0.021-5.097,2.964-4.529,5.499
	c-2.029-1.622-5.308-1.61-6.928,1.661c-0.17,0.345-0.35,0.656-0.537,0.938c-0.321-0.106-0.655-0.24-1.002-0.407
	c-3.021-1.451-5.452,0.126-6.294,2.35c-1.829,1.521-2.528,4.333-0.172,6.717c0.271,0.273,0.506,0.545,0.711,0.814
	c-0.205,0.269-0.44,0.541-0.711,0.813c-2.565,2.598-1.509,5.7,0.687,7.091c-2.583,0.289-4.893,2.615-3.725,6.074
	c0.123,0.363,0.217,0.711,0.283,1.043c-0.303,0.152-0.634,0.293-0.996,0.42c-3.163,1.111-3.767,3.944-2.789,6.113
	c-0.218,2.368,1.275,4.85,4.628,4.87c0.385,0.002,0.743,0.027,1.078,0.073c0.046,0.334,0.07,0.693,0.073,1.078
	c0.021,3.65,2.964,5.098,5.499,4.528c-1.622,2.03-1.61,5.309,1.661,6.929c0.345,0.17,0.656,0.351,0.938,0.537
	c-0.106,0.321-0.24,0.656-0.407,1.002c-1.45,3.021,0.126,5.452,2.351,6.294c1.521,1.829,4.332,2.527,6.716,0.172
	c0.273-0.271,0.545-0.507,0.814-0.711c0.269,0.204,0.541,0.44,0.813,0.711c2.597,2.565,5.7,1.509,7.092-0.686
	c0.288,2.581,2.614,4.892,6.073,3.724c0.364-0.124,0.712-0.217,1.043-0.282c0.152,0.301,0.293,0.633,0.421,0.995
	c1.11,3.163,3.943,3.767,6.112,2.789C65.215,95.088,67.696,93.594,67.717,90.242z M66.576,87.95c-0.818,1.305-1.158,2.41-1.158,2.41
	s0.188-2.153-0.829-4.396c2.244,1.016,4.397,0.829,4.397,0.829S67.881,87.132,66.576,87.95z M58.257,83.21
	c0,0,1.005-0.636,0.982-1.852c0,0,1.324,2.172-1.243,4.856C57.996,86.215,58.65,84.982,58.257,83.21z M60.916,83.343
	c0.847,0.258,1.937,0.937,2.817,2.644c0,0-0.889-0.952-2.576-1.201c-1.514,0.785-2.043,1.975-2.043,1.975
	C59.39,84.858,60.199,83.861,60.916,83.343z M61.855,80.921c0.374,1.157,1.531,1.43,1.531,1.43c0.205,1.804,1.226,2.757,1.226,2.757
	C61.311,83.405,61.855,80.921,61.855,80.921z M67.892,88.251c0,0,0.721-0.606,2.354-1.22c1.635-0.612,2.332-2.74,2.332-2.74
	S73.032,88.898,67.892,88.251z M74.384,83.161c0,0,2.219,0.307,3.485-0.894c1.268-1.2,2.128-1.582,2.128-1.582
	C78.326,85.589,74.384,83.161,74.384,83.161z M80.304,79.371c-1.308,0.813-2.097,1.658-2.097,1.658s1.111-1.853,1.182-4.315
	c1.571,1.896,3.589,2.673,3.589,2.673S81.835,79.207,80.304,79.371z M76.054,72.047c0,0,2.472,0.599,2.555,4.313
	c0,0-0.408-1.335-1.94-2.31C76.668,74.05,76.93,72.891,76.054,72.047z M86.788,74.043c0,0-1.391-1.656-3.696-2.522
	c2.306-0.868,3.696-2.523,3.696-2.523s-0.542,1.021-0.885,2.523C86.246,73.021,86.788,74.043,86.788,74.043z M86.741,76.883
	c0,0.408-0.047,0.761-0.129,1.064c-0.261,0.177-0.579,0.336-0.965,0.469c-2.934,1.011-6.004-1.293-4.668-4.485
	C83.563,71.628,86.741,73.78,86.741,76.883z M78.643,72.264c0.781-0.417,2.031-0.707,3.861-0.122c0,0-1.302-0.045-2.671,0.971
	c-0.515,1.626-0.049,2.842-0.049,2.842C78.635,74.415,78.502,73.138,78.643,72.264z M77.594,69.888
	c1.083,0.554,2.094-0.072,2.094-0.072c1.421,1.131,2.816,1.083,2.816,1.083C78.966,72.029,77.594,69.888,77.594,69.888z
	 M81.355,80.218c0,0,0.913-0.23,2.65-0.065c1.737,0.166,3.297-1.441,3.297-1.441S85.692,83.052,81.355,80.218z M87.56,78.352
	c0,0,1.011-1.997,0.289-3.586c-0.723-1.59-0.803-2.527-0.803-2.527C91.139,75.415,87.56,78.352,87.56,78.352z M87.046,70.802
	c0,0,0.08-0.938,0.803-2.527c0.722-1.588-0.289-3.586-0.289-3.586S91.139,67.624,87.046,70.802z M88.038,62.612
	c0,0,1.784-1.353,1.831-3.097c0.048-1.744,0.387-2.623,0.387-2.623C92.541,61.542,88.038,62.612,88.038,62.612z M83.343,51.896
	c0.257-0.847,0.937-1.937,2.644-2.817c0,0-0.952,0.889-1.201,2.576c0.785,1.513,1.975,2.044,1.975,2.044
	C84.858,53.422,83.861,52.612,83.343,51.896z M86.215,54.815c0,0-1.232-0.654-3.005-0.261c0,0-0.636-1.005-1.852-0.982
	C81.358,53.572,83.53,52.248,86.215,54.815z M80.921,50.957c1.157-0.375,1.43-1.533,1.43-1.533c1.804-0.204,2.757-1.225,2.757-1.225
	C83.405,51.501,80.921,50.957,80.921,50.957z M86.174,51.421c0.198-3.454,3.968-4.18,6.162-1.985
	c0.288,0.289,0.505,0.57,0.661,0.844c-0.06,0.309-0.172,0.646-0.351,1.013C91.286,54.082,87.486,54.623,86.174,51.421z
	 M91.444,53.866c0,0-0.935,0.681-1.901,1.88c-0.349,1.5-0.31,2.655-0.31,2.655s-0.524-2.097-2.217-3.887
	C89.47,54.745,91.444,53.866,91.444,53.866z M90.886,55.602c0,0,0.482-0.809,1.828-1.921c1.345-1.111,1.312-3.35,1.312-3.35
	S95.956,54.539,90.886,55.602z M93.952,49.895c0,0-0.697-2.127-2.331-2.74c-1.635-0.612-2.354-1.219-2.354-1.219
	C94.407,45.288,93.952,49.895,93.952,49.895z M90.36,47.393c0,0-2.153-0.187-4.397,0.83c1.018-2.244,0.83-4.397,0.83-4.397
	s0.339,1.105,1.158,2.41C89.255,47.054,90.36,47.393,90.36,47.393z M88.251,44.919c0,0-0.606-0.72-1.22-2.354
	c-0.612-1.635-2.74-2.332-2.74-2.332S88.897,39.779,88.251,44.919z M83.162,38.428c0,0,0.306-2.219-0.895-3.485
	c-1.201-1.267-1.582-2.128-1.582-2.128C85.59,34.485,83.162,38.428,83.162,38.428z M79.371,32.508
	c0.813,1.308,1.658,2.097,1.658,2.097s-1.854-1.111-4.315-1.182c1.896-1.571,2.672-3.589,2.672-3.589S79.207,30.977,79.371,32.508z
	 M80.218,31.456c0,0-0.23-0.913-0.065-2.65c0.166-1.737-1.441-3.297-1.441-3.297S83.052,27.119,80.218,31.456z M73.931,31.832
	c-2.303-2.583-0.15-5.762,2.952-5.762c0.408,0,0.762,0.047,1.064,0.129c0.177,0.261,0.336,0.579,0.469,0.965
	C79.427,30.098,77.123,33.168,73.931,31.832z M73.113,32.979c1.625,0.515,2.842,0.049,2.842,0.049
	c-1.54,1.149-2.817,1.281-3.691,1.142c-0.417-0.78-0.707-2.031-0.122-3.861C72.142,30.308,72.097,31.609,73.113,32.979z
	 M76.359,34.203c0,0-1.335,0.409-2.31,1.941c0,0-1.159-0.263-2.003,0.613C72.047,36.758,72.646,34.286,76.359,34.203z
	 M78.352,25.252c0,0-1.998-1.011-3.586-0.289c-1.59,0.723-2.527,0.803-2.527,0.803C75.415,21.674,78.352,25.252,78.352,25.252z
	 M74.043,26.023c0,0-1.655,1.391-2.523,3.696c-0.867-2.306-2.522-3.696-2.522-3.696s1.021,0.541,2.522,0.885
	C73.021,26.564,74.043,26.023,74.043,26.023z M69.814,33.124c1.132-1.421,1.084-2.816,1.084-2.816
	c1.131,3.538-1.012,4.91-1.012,4.91C70.441,34.135,69.814,33.124,69.814,33.124z M70.802,25.766c0,0-0.938-0.08-2.527-0.803
	c-1.589-0.722-3.586,0.289-3.586,0.289S67.624,21.674,70.802,25.766z M62.612,24.773c0,0-1.353-1.784-3.097-1.831
	c-1.744-0.048-2.623-0.387-2.623-0.387C61.542,20.27,62.612,24.773,62.612,24.773z M58.401,23.578c0,0-2.097,0.524-3.887,2.217
	c0.23-2.453-0.648-4.428-0.648-4.428s0.681,0.935,1.88,1.9C57.246,23.617,58.401,23.578,58.401,23.578z M54.555,29.602
	c0,0-1.005,0.635-0.982,1.852c0,0-1.324-2.172,1.243-4.856C54.815,26.597,54.161,27.829,54.555,29.602z M49.078,26.825
	c0,0,0.889,0.952,2.576,1.201c1.514-0.785,2.043-1.975,2.043-1.975c-0.275,1.901-1.085,2.897-1.802,3.417
	C51.049,29.211,49.959,28.532,49.078,26.825z M50.956,31.892c-0.374-1.158-1.532-1.431-1.532-1.431
	c-0.204-1.804-1.225-2.757-1.225-2.757C51.502,29.406,50.956,31.892,50.956,31.892z M55.602,21.927c0,0-0.809-0.483-1.92-1.829
	c-1.112-1.345-3.351-1.312-3.351-1.312S54.538,16.855,55.602,21.927z M50.279,19.814c0.309,0.059,0.646,0.172,1.013,0.351
	c2.79,1.359,3.331,5.16,0.13,6.473c-3.455-0.198-4.181-3.967-1.986-6.162C49.725,20.188,50.006,19.971,50.279,19.814z
	 M49.895,18.859c0,0-2.127,0.697-2.74,2.331c-0.612,1.635-1.219,2.354-1.219,2.354C45.288,18.404,49.895,18.859,49.895,18.859z
	 M46.235,24.86c0.818-1.304,1.157-2.409,1.157-2.409s-0.187,2.153,0.83,4.397c-2.244-1.017-4.397-0.83-4.397-0.83
	S44.931,25.68,46.235,24.86z M44.919,24.561c0,0-0.72,0.606-2.354,1.22c-1.634,0.612-2.332,2.74-2.332,2.74
	S39.779,23.914,44.919,24.561z M38.428,29.649c0,0-2.219-0.305-3.485,0.895c-1.267,1.201-2.128,1.582-2.128,1.582
	C34.485,27.222,38.428,29.649,38.428,29.649z M32.508,33.44c1.308-0.813,2.097-1.659,2.097-1.659s-1.111,1.854-1.182,4.316
	c-1.571-1.896-3.589-2.673-3.589-2.673S30.977,33.604,32.508,33.44z M36.758,40.765c0,0-2.472-0.599-2.556-4.313
	c0,0,0.41,1.335,1.942,2.31C36.145,38.762,35.882,39.921,36.758,40.765z M26.023,38.769c0,0,1.39,1.655,3.696,2.523
	c-2.307,0.867-3.696,2.522-3.696,2.522s0.542-1.021,0.885-2.522C26.565,39.79,26.023,38.769,26.023,38.769z M26.07,35.929
	c0-0.408,0.047-0.762,0.129-1.065c0.261-0.176,0.579-0.335,0.965-0.468c2.934-1.011,6.004,1.293,4.668,4.485
	C29.249,41.184,26.07,39.031,26.07,35.929z M34.169,40.548c-0.781,0.417-2.031,0.707-3.861,0.122c0,0,1.302,0.045,2.671-0.972
	c0.515-1.625,0.049-2.841,0.049-2.841C34.177,38.396,34.309,39.674,34.169,40.548z M35.218,42.925
	c-1.083-0.555-2.094,0.072-2.094,0.072c-1.421-1.132-2.816-1.084-2.816-1.084C33.846,40.782,35.218,42.925,35.218,42.925z
	 M31.456,32.594c0,0-0.913,0.23-2.65,0.064c-1.737-0.164-3.297,1.442-3.297,1.442S27.119,29.76,31.456,32.594z M25.252,34.46
	c0,0-1.011,1.998-0.288,3.587c0.722,1.589,0.802,2.526,0.802,2.526C21.674,37.396,25.252,34.46,25.252,34.46z M25.766,42.01
	c0,0-0.08,0.938-0.802,2.527c-0.723,1.589,0.288,3.586,0.288,3.586S21.674,45.188,25.766,42.01z M24.773,50.199
	c0,0-1.784,1.353-1.831,3.097c-0.048,1.744-0.386,2.623-0.386,2.623C20.27,51.271,24.773,50.199,24.773,50.199z M29.469,60.916
	c-0.258,0.847-0.937,1.937-2.644,2.817c0,0,0.952-0.889,1.201-2.576c-0.785-1.513-1.975-2.044-1.975-2.044
	C27.953,59.39,28.949,60.198,29.469,60.916z M26.597,57.996c0,0,1.233,0.654,3.005,0.261c0,0,0.635,1.005,1.852,0.982
	C31.453,59.239,29.281,60.563,26.597,57.996z M31.892,61.854c-1.158,0.375-1.431,1.532-1.431,1.532
	c-1.804,0.205-2.757,1.226-2.757,1.226C29.406,61.311,31.892,61.854,31.892,61.854z M26.638,61.391
	c-0.198,3.454-3.967,4.18-6.162,1.985c-0.288-0.288-0.505-0.57-0.661-0.844c0.059-0.309,0.172-0.646,0.351-1.013
	C21.525,58.729,25.325,58.188,26.638,61.391z M21.367,58.945c0,0,0.935-0.681,1.9-1.88c0.35-1.5,0.311-2.655,0.311-2.655
	s0.524,2.097,2.217,3.887C23.342,58.066,21.367,58.945,21.367,58.945z M21.927,57.21c0,0-0.483,0.809-1.829,1.921
	c-1.345,1.111-1.312,3.35-1.312,3.35S16.855,58.272,21.927,57.21z M18.859,62.917c0,0,0.697,2.127,2.331,2.74
	c1.635,0.612,2.354,1.219,2.354,1.219C18.404,67.523,18.859,62.917,18.859,62.917z M22.451,65.418c0,0,2.153,0.188,4.397-0.829
	c-1.017,2.244-0.83,4.397-0.83,4.397s-0.339-1.105-1.158-2.41C23.557,65.758,22.451,65.418,22.451,65.418z M24.561,67.893
	c0,0,0.606,0.72,1.22,2.354c0.612,1.634,2.74,2.331,2.74,2.331S23.914,73.032,24.561,67.893z M29.649,74.384
	c0,0-0.306,2.219,0.896,3.485c1.2,1.268,1.581,2.128,1.581,2.128C27.222,78.326,29.649,74.384,29.649,74.384z M33.44,80.304
	c-0.813-1.308-1.659-2.097-1.659-2.097s1.854,1.111,4.316,1.182c-1.896,1.571-2.672,3.589-2.672,3.589S33.604,81.835,33.44,80.304z
	 M32.594,81.355c0,0,0.23,0.913,0.064,2.65c-0.164,1.737,1.442,3.297,1.442,3.297S29.76,85.692,32.594,81.355z M38.881,80.979
	c2.303,2.583,0.151,5.762-2.952,5.762c-0.408,0-0.761-0.047-1.065-0.129c-0.176-0.261-0.335-0.579-0.468-0.965
	C33.385,82.714,35.688,79.644,38.881,80.979z M39.698,79.833c-1.625-0.515-2.841-0.049-2.841-0.049
	c1.539-1.148,2.816-1.282,3.69-1.143c0.417,0.782,0.707,2.032,0.122,3.862C40.67,82.504,40.715,81.202,39.698,79.833z
	 M36.452,78.608c0,0,1.335-0.408,2.31-1.941c0,0,1.159,0.263,2.003-0.613C40.765,76.054,40.166,78.525,36.452,78.608z M34.46,87.56
	c0,0,1.998,1.011,3.586,0.288c1.59-0.721,2.527-0.802,2.527-0.802C37.396,91.138,34.46,87.56,34.46,87.56z M38.769,86.789
	c0,0,1.655-1.391,2.523-3.697c0.867,2.307,2.522,3.697,2.522,3.697s-1.021-0.543-2.522-0.886
	C39.791,86.246,38.769,86.789,38.769,86.789z M42.997,79.688c-1.132,1.421-1.084,2.816-1.084,2.816
	c-1.131-3.538,1.012-4.91,1.012-4.91C42.37,78.677,42.997,79.688,42.997,79.688z M42.01,87.046c0,0,0.938,0.081,2.527,0.802
	c1.588,0.723,3.586-0.288,3.586-0.288S45.188,91.138,42.01,87.046z M49.899,84.6c-0.054-0.417-0.17-0.838-0.355-1.253
	c0,0,0.602,3.395-2.889,3.395s-5.776-4.021-1.878-6.692c3.899-2.672,4.959-5.079,2.095-9.195c0,0,3.298,5.44-3.273,8.497
	c0,0-0.554-1.949,1.66-3.852c0,0-2.79,0.854-3.967,2.975c-0.09-0.161-0.188-0.315-0.295-0.462c-0.173-0.053-0.351-0.096-0.532-0.128
	c1.622-1.804,1.52-4.72,1.52-4.72c-1.076,2.713-3.101,2.824-3.101,2.824c0.75-7.208,6.968-5.862,6.968-5.862
	c-4.825-1.368-6.756,0.418-8.012,4.976c-1.256,4.557-5.802,3.704-6.938,0.404s2.269-3.837,2.269-3.837
	c-0.453-0.04-0.889-0.013-1.301,0.072c0.257-0.333,0.473-0.713,0.635-1.138c0,0-1.975,2.826-4.443,0.357
	c-2.468-2.468-1.242-6.927,3.405-6.06c4.646,0.869,7.097-0.085,7.982-5.021c0,0-1.515,6.179-8.323,3.693
	c0,0,0.987-1.771,3.897-1.549c0,0-2.576-1.37-4.908-0.703c0.051-0.177,0.09-0.355,0.118-0.534c-0.085-0.159-0.18-0.315-0.285-0.467
	c2.422-0.129,4.411-2.264,4.411-2.264c-2.68,1.157-4.189-0.193-4.189-0.193c5.628-4.567,9.072,0.78,9.072,0.78
	c-2.445-4.379-5.073-4.481-9.183-2.147c-4.111,2.335-6.723-1.482-5.193-4.62c1.53-3.137,4.317-1.108,4.317-1.108
	c-0.291-0.35-0.619-0.638-0.971-0.869c0.417-0.054,0.838-0.17,1.253-0.355c0,0-3.395,0.602-3.395-2.889s4.021-5.777,6.692-1.878
	c2.672,3.9,5.079,4.959,9.195,2.095c0,0-5.44,3.298-8.497-3.273c0,0,1.949-0.554,3.852,1.66c0,0-0.854-2.79-2.975-3.967
	c0.161-0.09,0.315-0.188,0.462-0.295c0.053-0.173,0.096-0.351,0.128-0.532c1.805,1.622,4.72,1.52,4.72,1.52
	c-2.713-1.076-2.824-3.101-2.824-3.101c7.208,0.75,5.862,6.968,5.862,6.968c1.367-4.825-0.418-6.756-4.975-8.012
	c-4.558-1.256-3.705-5.802-0.405-6.938s3.837,2.269,3.837,2.269c0.041-0.453,0.013-0.889-0.072-1.302
	c0.333,0.258,0.713,0.474,1.138,0.636c0,0-2.826-1.976-0.357-4.443c2.468-2.468,6.927-1.242,6.06,3.405
	c-0.868,4.646,0.085,7.098,5.021,7.982c0,0-6.178-1.515-3.693-8.323c0,0,1.771,0.987,1.549,3.897c0,0,1.37-2.576,0.703-4.908
	c0.177,0.051,0.355,0.09,0.534,0.118c0.159-0.085,0.315-0.18,0.467-0.286c0.129,2.423,2.263,4.412,2.263,4.412
	c-1.157-2.68,0.195-4.189,0.195-4.189c4.566,5.628-0.781,9.072-0.781,9.072c4.379-2.445,4.481-5.073,2.147-9.183
	c-2.335-4.111,1.482-6.723,4.62-5.193c3.137,1.53,1.108,4.317,1.108,4.317c0.349-0.292,0.638-0.619,0.869-0.971
	c0.054,0.417,0.17,0.838,0.355,1.253c0,0-0.602-3.395,2.889-3.395s5.777,4.021,1.877,6.692c-3.898,2.672-4.958,5.079-2.094,9.195
	c0,0-3.298-5.44,3.273-8.497c0,0,0.554,1.949-1.661,3.852c0,0,2.791-0.854,3.968-2.975c0.09,0.161,0.188,0.315,0.295,0.462
	c0.173,0.053,0.351,0.096,0.532,0.128c-1.622,1.804-1.52,4.72-1.52,4.72c1.077-2.713,3.101-2.824,3.101-2.824
	c-0.75,7.208-6.968,5.862-6.968,5.862c4.825,1.367,6.756-0.418,8.012-4.975c1.256-4.558,5.802-3.705,6.938-0.405
	s-2.269,3.837-2.269,3.837c0.453,0.041,0.889,0.013,1.301-0.072c-0.257,0.333-0.473,0.713-0.635,1.138c0,0,1.975-2.826,4.443-0.357
	c2.468,2.468,1.242,6.927-3.405,6.06c-4.646-0.869-7.097,0.085-7.982,5.021c0,0,1.515-6.178,8.323-3.693
	c0,0-0.987,1.771-3.897,1.549c0,0,2.576,1.37,4.908,0.703c-0.051,0.177-0.09,0.355-0.119,0.534c0.086,0.159,0.181,0.315,0.287,0.467
	c-2.423,0.129-4.412,2.264-4.412,2.264c2.68-1.157,4.189,0.194,4.189,0.194c-5.627,4.566-9.072-0.781-9.072-0.781
	c2.445,4.379,5.073,4.481,9.183,2.147c4.111-2.335,6.723,1.482,5.193,4.62c-1.53,3.137-4.317,1.108-4.317,1.108
	c0.291,0.35,0.619,0.638,0.971,0.869c-0.417,0.054-0.838,0.17-1.253,0.355c0,0,3.395-0.602,3.395,2.889s-4.021,5.777-6.692,1.878
	c-2.672-3.9-5.079-4.959-9.195-2.095c0,0,5.44-3.298,8.497,3.273c0,0-1.949,0.554-3.851-1.661c0,0,0.853,2.791,2.973,3.969
	c-0.16,0.089-0.314,0.188-0.461,0.294c-0.053,0.173-0.096,0.351-0.128,0.532c-1.804-1.622-4.72-1.52-4.72-1.52
	c2.713,1.076,2.824,3.101,2.824,3.101c-7.208-0.75-5.862-6.968-5.862-6.968c-1.368,4.825,0.418,6.756,4.975,8.012
	c4.558,1.256,3.705,5.802,0.405,6.938c-3.3,1.138-3.837-2.268-3.837-2.268c-0.041,0.452-0.013,0.888,0.072,1.3
	c-0.333-0.257-0.713-0.473-1.138-0.635c0,0,2.826,1.976,0.357,4.443c-2.468,2.467-6.927,1.242-6.06-3.405
	c0.868-4.646-0.085-7.098-5.021-7.982c0,0,6.178,1.515,3.693,8.323c0,0-1.77-0.987-1.549-3.897c0,0-1.37,2.576-0.703,4.908
	c-0.177-0.052-0.355-0.09-0.534-0.119c-0.159,0.086-0.315,0.181-0.467,0.287c-0.129-2.423-2.263-4.412-2.263-4.412
	c1.157,2.68-0.195,4.189-0.195,4.189c-4.566-5.627,0.781-9.072,0.781-9.072c-4.379,2.444-4.481,5.072-2.147,9.184
	c2.335,4.11-1.482,6.722-4.62,5.192c-3.137-1.53-1.108-4.317-1.108-4.317C50.42,83.921,50.131,84.248,49.899,84.6z M50.199,88.038
	c0,0,1.353,1.784,3.097,1.831c1.744,0.048,2.623,0.387,2.623,0.387C51.27,92.541,50.199,88.038,50.199,88.038z M54.41,89.233
	c0,0,2.097-0.525,3.887-2.217c-0.23,2.453,0.648,4.429,0.648,4.429s-0.681-0.936-1.88-1.901
	C55.565,89.194,54.41,89.233,54.41,89.233z M57.21,90.885c0,0,0.809,0.483,1.92,1.829c1.112,1.345,3.351,1.312,3.351,1.312
	S58.273,95.956,57.21,90.885z M62.532,92.997c-0.309-0.06-0.646-0.172-1.013-0.351c-2.79-1.359-3.331-5.16-0.129-6.473
	c3.454,0.198,4.18,3.968,1.985,6.162C63.087,92.625,62.806,92.841,62.532,92.997z M62.917,93.952c0,0,2.127-0.697,2.74-2.331
	c0.612-1.635,1.219-2.354,1.219-2.354C67.523,94.407,62.917,93.952,62.917,93.952z M28.327,82.927
	c-0.345-0.171-0.656-0.351-0.938-0.538c0.105-0.321,0.24-0.654,0.406-1.001c1.314-2.737,0.146-4.988-1.738-6.014l0,0
	c-0.097-2.145-1.608-4.181-4.645-4.199c-0.384-0.002-0.743-0.027-1.078-0.072c-0.045-0.336-0.07-0.695-0.072-1.079
	c-0.035-5.685-7.149-6.025-8.784-1.735c0,0,1.976-2.826,4.443-0.357c2.468,2.468,1.242,6.927-3.404,6.06
	c-4.646-0.869-7.098,0.085-7.983,5.021c0,0,1.516-6.179,8.323-3.693c0,0-0.987,1.77-3.897,1.549c0,0,2.576,1.37,4.908,0.703
	c-0.667,2.332,0.702,4.908,0.702,4.908c-0.221-2.911,1.55-3.898,1.55-3.898c0.36,0.989,0.538,1.866,0.579,2.643l0,0
	c0.681,0.378,1.391,0.922,2.122,1.68c0,0-1.663,1.158-4.183-0.316c0,0,1.715,2.36,4.104,2.783c-1.622,1.804-1.52,4.72-1.52,4.72
	c1.077-2.713,3.101-2.825,3.101-2.825c-0.75,7.209-6.968,5.863-6.968,5.863c4.825,1.367,6.757-0.418,8.012-4.976
	c1.257-4.557,5.803-3.705,6.939-0.405c1.137,3.301-2.269,3.837-2.269,3.837C30.609,91.993,33.422,85.448,28.327,82.927z
	 M25.125,75.956l0.753-0.471L25.125,75.956c0.297,0.117,4.217,1.766,1.488,5.94c0,0-0.229-0.913-0.064-2.65
	c0.157-1.653-1.289-3.145-1.431-3.286c-0.064-0.188-0.771-2.143-2.326-2.726c-1.634-0.612-2.354-1.22-2.354-1.22
	C25.386,71.393,25.149,75.638,25.125,75.956z M15.462,66.313c0,0,4.607-0.455,3.96,4.686c0,0-0.606-0.72-1.22-2.354
	C17.59,67.011,15.462,66.313,15.462,66.313z M17.964,69.905c0,0,0.34,1.105,1.158,2.41c1.305,0.818,2.409,1.158,2.409,1.158
	s-2.153-0.188-4.396,0.829C18.151,72.059,17.964,69.905,17.964,69.905z M12.092,77.037c1.157-0.375,1.43-1.532,1.43-1.532
	c1.805-0.205,2.757-1.226,2.757-1.226C14.576,77.581,12.092,77.037,12.092,77.037z M15.933,77.915c0,0-1.157,0.272-1.532,1.431
	c0,0-0.545-2.484,2.757-4.188C17.157,75.158,16.138,76.111,15.933,77.915z M17.688,80.605L17.688,80.605
	c-0.047-0.526-0.129-1.088-0.24-1.686c-0.868-4.647,3.592-5.873,6.06-3.405c0.34,0.341,0.58,0.672,0.74,0.99
	c0.216,0.283,0.408,0.644,0.565,1.1c1.137,3.3-1.919,6.771-5.716,3.954C18.608,81.196,18.14,80.878,17.688,80.605z M17.379,84.111
	c1.205,0.171,1.957-0.751,1.957-0.751c1.711,0.606,3.015,0.107,3.015,0.107C19.374,85.689,17.379,84.111,17.379,84.111z
	 M20.446,86.584c0,0-1.16-0.263-2.004,0.614c0,0,0.6-2.473,4.313-2.556C22.756,84.643,21.421,85.052,20.446,86.584z M23.109,83.863
	c1.897-1.571,2.673-3.59,2.673-3.59s-0.18,1.143-0.015,2.674c0.813,1.308,1.658,2.097,1.658,2.097S25.572,83.933,23.109,83.863z
	 M29.558,88.867c0,0,0.306-2.218-0.895-3.484c-1.2-1.268-1.581-2.128-1.581-2.128C31.985,84.926,29.558,88.867,29.558,88.867z
	 M9.183,54.077c4.111-2.334,6.723,1.482,5.193,4.62s-4.317,1.109-4.317,1.109c2.942,3.522,9.559,0.884,7.739-4.503
	c-0.123-0.364-0.217-0.711-0.282-1.043c0.302-0.152,0.633-0.293,0.995-0.42c2.864-1.006,3.63-3.424,3.023-5.482
	c1.447-1.584,1.818-4.094-0.315-6.253c-0.27-0.272-0.506-0.545-0.711-0.813c0.205-0.27,0.441-0.541,0.711-0.814
	c3.996-4.044-0.794-9.315-4.983-7.438c0,0,3.395-0.603,3.395,2.889c0,3.49-4.02,5.776-6.691,1.877s-5.079-4.959-9.195-2.094
	c0,0,5.439-3.298,8.497,3.273c0,0-1.95,0.554-3.852-1.661c0,0,0.853,2.79,2.974,3.968c-2.121,1.177-2.974,3.967-2.974,3.967
	c1.901-2.214,3.852-1.66,3.852-1.66c-0.444,0.954-0.938,1.7-1.459,2.278c0.215,0.748,0.332,1.636,0.313,2.688
	c0,0-1.995-0.356-2.733-3.181c0,0-0.456,2.882,0.935,4.869c-2.423,0.129-4.412,2.264-4.412,2.264
	c2.68-1.157,4.189,0.194,4.189,0.194C3.445,57.277,0,51.93,0,51.93C2.445,56.309,5.073,56.411,9.183,54.077z M13.446,52.277
	c2.453,0.23,4.428-0.648,4.428-0.648s-0.935,0.682-1.9,1.88c-0.35,1.5-0.311,2.655-0.311,2.655S15.139,54.067,13.446,52.277z
	 M14.468,60.375c0,0,1.784-1.353,1.832-3.097c0.047-1.744,0.386-2.623,0.386-2.623C18.972,59.305,14.468,60.375,14.468,60.375z
	 M20.448,34.46c0,0,3.579,2.937-0.514,6.113c0,0,0.081-0.938,0.803-2.526C21.46,36.458,20.448,34.46,20.448,34.46z M20.463,48.111
	c0.127,0.293,1.733,4.229-3.148,5.253c0,0,0.483-0.809,1.829-1.92c1.279-1.058,1.312-3.135,1.312-3.335l-0.5-0.115l0.5,0.115
	c0.088-0.18,0.97-2.062,0.282-3.572c-0.722-1.589-0.803-2.527-0.803-2.527C23.874,45.068,20.705,47.903,20.463,48.111z
	 M19.678,38.769c0,0-0.542,1.021-0.885,2.523c0.343,1.501,0.885,2.522,0.885,2.522s-1.391-1.655-3.696-2.522
	C18.287,40.424,19.678,38.769,19.678,38.769z M10.482,39.659c1.084,0.554,2.095-0.072,2.095-0.072
	c1.421,1.131,2.815,1.083,2.815,1.083C11.854,41.802,10.482,39.659,10.482,39.659z M10.482,42.925c0,0,1.372-2.143,4.91-1.012
	c0,0-1.395-0.048-2.815,1.084C12.577,42.997,11.566,42.37,10.482,42.925z M12.938,44.777c2.672-3.899,6.691-1.612,6.691,1.878
	c0,0.481-0.064,0.885-0.176,1.223c-0.048,0.354-0.167,0.744-0.378,1.177c-1.529,3.138-6.145,3.432-6.838-1.245
	c-0.089-0.601-0.194-1.157-0.322-1.671C12.256,45.733,12.595,45.279,12.938,44.777z M9.219,48.4
	c0.731,0.972,1.915,0.853,1.915,0.853c0.781,1.64,2.056,2.208,2.056,2.208C9.514,50.927,9.219,48.4,9.219,48.4z M7.788,51.335
	c0,0,2.172-1.324,4.856,1.243c0,0-1.232-0.654-3.005-0.261C9.64,52.317,9.005,51.313,7.788,51.335z M24.661,21.368
	c4.558,1.256,3.705,5.801,0.405,6.938c-3.301,1.137-3.838-2.269-3.838-2.269c-0.41,4.571,6.135,7.384,8.656,2.289
	c0.171-0.345,0.351-0.656,0.538-0.938c0.321,0.105,0.654,0.24,1.001,0.407c2.736,1.313,4.988,0.145,6.015-1.739l-0.583-0.933
	c-0.117,0.297-1.766,4.217-5.94,1.488c0,0,0.913-0.229,2.65-0.064c1.653,0.157,3.145-1.289,3.286-1.431
	c0.188-0.064,2.143-0.771,2.726-2.326c0.612-1.634,1.22-2.354,1.22-2.354c0.622,4.948-3.623,4.712-3.941,4.688l0.583,0.933
	c2.144-0.097,4.18-1.608,4.198-4.645c0.002-0.384,0.027-0.743,0.072-1.078c0.336-0.045,0.694-0.07,1.079-0.072
	c5.685-0.034,6.024-7.149,1.735-8.784c0,0,2.826,1.976,0.357,4.443c-2.468,2.468-6.927,1.242-6.06-3.404
	c0.869-4.646-0.085-7.098-5.021-7.983c0,0,6.178,1.516,3.693,8.323c0,0-1.771-0.987-1.549-3.897c0,0-1.37,2.576-0.703,4.908
	c-2.332-0.667-4.908,0.702-4.908,0.702c2.911-0.221,3.898,1.55,3.898,1.55c-0.989,0.36-1.866,0.538-2.643,0.579l0,0
	c-0.378,0.681-0.922,1.391-1.68,2.122c0,0-1.158-1.663,0.315-4.183c0,0-2.359,1.715-2.782,4.104c-1.804-1.622-4.72-1.52-4.72-1.52
	c2.714,1.077,2.825,3.101,2.825,3.101c-7.209-0.75-5.863-6.968-5.863-6.968C18.318,18.181,20.104,20.112,24.661,21.368z
	 M23.944,29.559c0,0,2.218,0.305,3.485-0.896c1.267-1.2,2.127-1.581,2.127-1.581C27.886,31.985,23.944,29.559,23.944,29.559z
	 M46.498,15.462c0,0,0.454,4.607-4.686,3.96c0,0,0.72-0.606,2.354-1.22C45.801,17.59,46.498,15.462,46.498,15.462z M42.906,17.964
	c0,0-1.105,0.34-2.41,1.158c-0.818,1.305-1.158,2.409-1.158,2.409s0.188-2.153-0.829-4.397
	C40.753,18.151,42.906,17.964,42.906,17.964z M35.775,12.092c0.374,1.157,1.531,1.43,1.531,1.43
	c0.205,1.805,1.226,2.757,1.226,2.757C35.23,14.576,35.775,12.092,35.775,12.092z M33.466,14.4c0,0,2.485-0.544,4.188,2.758
	c0,0-0.953-1.021-2.757-1.226C34.896,15.933,34.623,14.775,33.466,14.4z M31.253,19.097c0.362-0.488,0.681-0.957,0.954-1.409
	c0.525-0.047,1.087-0.129,1.685-0.24c4.647-0.868,5.873,3.592,3.404,6.06c-0.34,0.341-0.671,0.58-0.989,0.74
	c-0.283,0.216-0.644,0.408-1.1,0.565C31.907,25.949,28.437,22.894,31.253,19.097z M32.537,25.782c0,0-1.142-0.18-2.673-0.015
	c-1.308,0.813-2.097,1.658-2.097,1.658s1.111-1.854,1.181-4.316C30.52,25.007,32.537,25.782,32.537,25.782z M28.701,17.379
	c-0.171,1.204,0.75,1.957,0.75,1.957c-0.606,1.711-0.107,3.015-0.107,3.015C27.122,19.374,28.701,17.379,28.701,17.379z
	 M28.169,22.756c0,0-0.409-1.335-1.941-2.31c0,0,0.263-1.16-0.614-2.004C25.613,18.442,28.086,19.042,28.169,22.756z M57.508,17.798
	c0.364-0.123,0.712-0.217,1.043-0.282c0.152,0.302,0.293,0.633,0.42,0.995c1.007,2.864,3.425,3.63,5.482,3.023l0.247-1.071
	c-0.293,0.127-4.229,1.733-5.253-3.148c0,0,0.809,0.483,1.92,1.829c1.058,1.279,3.135,1.312,3.335,1.312
	c0.18,0.088,2.062,0.97,3.572,0.282c1.589-0.722,2.527-0.803,2.527-0.803c-3.059,3.939-5.894,0.771-6.102,0.528l-0.247,1.071
	c1.584,1.447,4.093,1.818,6.253-0.315c0.272-0.27,0.545-0.506,0.813-0.711c0.27,0.205,0.541,0.441,0.814,0.711
	c4.044,3.996,9.315-0.794,7.438-4.983c0,0,0.602,3.395-2.889,3.395s-5.776-4.02-1.877-6.691s4.959-5.079,2.094-9.195
	c0,0,3.298,5.439-3.273,8.497c0,0-0.554-1.95,1.661-3.852c0,0-2.79,0.853-3.968,2.974c-1.177-2.121-3.968-2.974-3.968-2.974
	c2.215,1.901,1.661,3.852,1.661,3.852c-0.954-0.444-1.7-0.938-2.278-1.459l0,0l0,0c-0.748,0.215-1.636,0.332-2.688,0.313
	c0,0,0.356-1.995,3.181-2.733c0,0-2.882-0.456-4.869,0.935c-0.129-2.423-2.263-4.412-2.263-4.412
	c1.156,2.68-0.195,4.189-0.195,4.189C55.533,3.445,60.882,0,60.882,0c-4.379,2.445-4.482,5.073-2.147,9.183
	c2.334,4.111-1.482,6.723-4.62,5.193c-3.137-1.529-1.108-4.317-1.108-4.317C49.482,13.001,52.121,19.617,57.508,17.798z
	 M78.352,20.448c0,0-2.937,3.579-6.113-0.514c0,0,0.938,0.081,2.527,0.803C76.354,21.46,78.352,20.448,78.352,20.448z
	 M73.152,10.482c-0.554,1.084,0.072,2.095,0.072,2.095c-1.131,1.421-1.083,2.815-1.083,2.815
	C71.01,11.854,73.152,10.482,73.152,10.482z M74.043,19.678c0,0-1.021-0.542-2.523-0.885c-1.501,0.343-2.522,0.885-2.522,0.885
	s1.655-1.391,2.522-3.696C72.388,18.287,74.043,19.678,74.043,19.678z M69.887,10.482c0,0,2.143,1.372,1.012,4.91
	c0,0,0.048-1.395-1.084-2.815C69.814,12.577,70.441,11.566,69.887,10.482z M65.002,12.238c0.602-0.089,1.158-0.194,1.671-0.322
	c0.404,0.339,0.859,0.679,1.36,1.022c3.9,2.672,1.613,6.691-1.877,6.691c-0.481,0-0.885-0.064-1.224-0.176
	c-0.353-0.048-0.743-0.167-1.176-0.378C60.619,17.547,60.325,12.932,65.002,12.238z M64.411,9.219
	c-0.972,0.731-0.853,1.915-0.853,1.915c-1.64,0.781-2.208,2.056-2.208,2.056C61.885,9.514,64.411,9.219,64.411,9.219z M60.494,9.64
	c0,0,1.005-0.635,0.982-1.852c0,0,1.324,2.172-1.243,4.856C60.233,12.645,60.888,11.412,60.494,9.64z M60.534,13.446
	c-0.23,2.453,0.648,4.428,0.648,4.428s-0.682-0.935-1.88-1.9c-1.5-0.35-2.655-0.311-2.655-0.311S58.744,15.139,60.534,13.446z
	 M55.533,16.3c1.745,0.047,2.623,0.386,2.623,0.386c-4.649,2.286-5.72-2.218-5.72-2.218S53.789,16.252,55.533,16.3z M84.484,29.885
	c0.345,0.17,0.656,0.351,0.938,0.538c-0.105,0.321-0.24,0.654-0.406,1.001c-1.314,2.737-0.146,4.988,1.738,6.015l0.933-0.583
	c-0.298-0.117-4.217-1.766-1.488-5.94c0,0,0.229,0.913,0.064,2.65c-0.157,1.653,1.289,3.145,1.431,3.286
	c0.064,0.188,0.771,2.143,2.326,2.726c1.634,0.612,2.354,1.22,2.354,1.22c-4.948,0.622-4.712-3.623-4.688-3.941l-0.933,0.583
	c0.097,2.144,1.608,4.18,4.645,4.198c0.384,0.002,0.743,0.027,1.078,0.072c0.045,0.336,0.07,0.694,0.072,1.079
	c0.035,5.685,7.149,6.024,8.783,1.735c0,0-1.975,2.826-4.442,0.357c-2.468-2.468-1.242-6.927,3.405-6.06
	c4.646,0.868,7.097-0.085,7.982-5.021c0,0-1.516,6.178-8.323,3.693c0,0,0.987-1.771,3.897-1.549c0,0-2.576-1.37-4.908-0.703
	c0.668-2.332-0.702-4.908-0.702-4.908c0.221,2.911-1.549,3.898-1.549,3.898c-0.361-0.989-0.539-1.866-0.58-2.643l0,0
	c-0.681-0.378-1.392-0.922-2.122-1.68c0,0,1.663-1.158,4.183,0.316c0,0-1.715-2.36-4.104-2.783c1.621-1.804,1.519-4.72,1.519-4.72
	c-1.076,2.713-3.1,2.825-3.1,2.825c0.75-7.209,6.967-5.863,6.967-5.863c-4.824-1.367-6.756,0.418-8.011,4.976
	c-1.257,4.557-5.802,3.705-6.939,0.405c-1.137-3.301,2.269-3.838,2.269-3.838C82.202,20.818,79.39,27.363,84.484,29.885z
	 M97.35,46.498c0,0-4.607,0.454-3.96-4.686c0,0,0.606,0.72,1.22,2.354C95.222,45.801,97.35,46.498,97.35,46.498z M94.848,42.906
	c0,0-0.34-1.105-1.158-2.41c-1.305-0.818-2.41-1.157-2.41-1.157s2.154,0.187,4.398-0.83C94.66,40.753,94.848,42.906,94.848,42.906z
	 M100.72,35.775c-1.157,0.374-1.43,1.531-1.43,1.531c-1.805,0.205-2.757,1.226-2.757,1.226
	C98.234,35.23,100.72,35.775,100.72,35.775z M96.879,34.896c0,0,1.157-0.272,1.532-1.431c0,0,0.545,2.485-2.758,4.188
	C95.653,37.653,96.674,36.7,96.879,34.896z M95.124,32.207L95.124,32.207c0.047,0.525,0.128,1.087,0.24,1.685
	c0.868,4.647-3.591,5.873-6.06,3.404c-0.341-0.34-0.58-0.672-0.74-0.989l0,0c-0.216-0.283-0.408-0.644-0.564-1.1
	c-1.138-3.3,1.918-6.771,5.715-3.954C94.203,31.615,94.672,31.934,95.124,32.207z M95.433,28.701
	c-1.204-0.171-1.957,0.75-1.957,0.75c-1.711-0.606-3.015-0.107-3.015-0.107C93.438,27.122,95.433,28.701,95.433,28.701z
	 M92.365,26.228c0,0,1.16,0.263,2.004-0.614c0,0-0.6,2.473-4.313,2.556C90.056,28.169,91.391,27.76,92.365,26.228z M89.702,28.948
	c-1.897,1.571-2.673,3.589-2.673,3.589s0.18-1.142,0.015-2.673c-0.813-1.308-1.658-2.098-1.658-2.098S87.239,28.879,89.702,28.948z
	 M83.254,23.944c0,0-0.306,2.218,0.895,3.484c1.2,1.268,1.581,2.128,1.581,2.128C80.826,27.886,83.254,23.944,83.254,23.944z
	 M112.812,60.882c-2.445-4.379-5.073-4.481-9.184-2.147s-6.722-1.482-5.192-4.62c1.529-3.137,4.317-1.108,4.317-1.108
	c-2.943-3.523-9.559-0.884-7.739,4.502c0.123,0.364,0.217,0.711,0.282,1.043c-0.302,0.152-0.633,0.293-0.995,0.42
	c-2.864,1.006-3.63,3.425-3.023,5.482l1.071,0.247c-0.127-0.293-1.733-4.229,3.148-5.253c0,0-0.483,0.809-1.829,1.92
	c-1.279,1.058-1.312,3.136-1.312,3.335c-0.088,0.18-0.969,2.062-0.282,3.572c0.722,1.589,0.802,2.527,0.802,2.527
	c-3.938-3.059-0.77-5.894-0.527-6.102l-1.071-0.247c-1.447,1.584-1.818,4.093,0.315,6.253c0.27,0.272,0.506,0.544,0.711,0.814
	c-0.205,0.269-0.441,0.54-0.711,0.813c-3.996,4.043,0.795,9.315,4.983,7.438c0,0-3.395,0.601-3.395-2.89s4.02-5.776,6.692-1.877
	c2.671,3.899,5.078,4.958,9.194,2.094c0,0-5.439,3.298-8.496-3.273c0,0,1.949-0.554,3.851,1.661c0,0-0.853-2.79-2.974-3.967
	c2.121-1.178,2.974-3.969,2.974-3.969c-1.901,2.215-3.851,1.661-3.851,1.661c0.443-0.954,0.938-1.7,1.458-2.278
	c-0.214-0.748-0.332-1.635-0.313-2.688c0,0,1.995,0.356,2.733,3.181c0,0,0.456-2.882-0.935-4.869
	c2.423-0.129,4.412-2.264,4.412-2.264c-2.68,1.157-4.189-0.194-4.189-0.194C109.366,55.534,112.812,60.882,112.812,60.882z
	 M92.363,78.352c0,0-3.579-2.937,0.513-6.113c0,0-0.08,0.938-0.802,2.527C91.352,76.354,92.363,78.352,92.363,78.352z
	 M98.344,52.437c0,0-1.784,1.353-1.831,3.097c-0.048,1.744-0.387,2.623-0.387,2.623C93.84,53.507,98.344,52.437,98.344,52.437z
	 M96.838,59.303c0.35-1.5,0.311-2.655,0.311-2.655s0.524,2.097,2.217,3.887c-2.453-0.23-4.428,0.648-4.428,0.648
	S95.872,60.502,96.838,59.303z M93.134,74.043c0,0,0.542-1.022,0.885-2.522c-0.343-1.502-0.885-2.523-0.885-2.523
	s1.391,1.655,3.696,2.523C94.524,72.387,93.134,74.043,93.134,74.043z M102.328,73.152c-1.082-0.554-2.094,0.072-2.094,0.072
	c-1.421-1.131-2.816-1.083-2.816-1.083C100.957,71.011,102.328,73.152,102.328,73.152z M102.328,69.888c0,0-1.371,2.142-4.91,1.011
	c0,0,1.396,0.048,2.816-1.083C100.234,69.815,101.246,70.441,102.328,69.888z M99.874,68.034c-2.673,3.899-6.692,1.612-6.692-1.878
	c0-0.481,0.064-0.885,0.176-1.223c0.048-0.354,0.167-0.744,0.378-1.178c1.529-3.137,6.145-3.431,6.838,1.246
	c0.089,0.601,0.194,1.158,0.322,1.671C100.557,67.077,100.217,67.532,99.874,68.034z M103.592,64.411
	c-0.73-0.973-1.914-0.853-1.914-0.853c-0.781-1.64-2.056-2.208-2.056-2.208C103.298,61.885,103.592,64.411,103.592,64.411z
	 M105.023,61.477c0,0-2.172,1.324-4.856-1.243c0,0,1.232,0.654,3.005,0.261C103.172,60.494,103.807,61.499,105.023,61.477z
	 M88.15,91.443c-4.558-1.256-3.705-5.801-0.404-6.938c3.3-1.138,3.836,2.268,3.836,2.268c0.411-4.572-6.134-7.384-8.655-2.289
	c-0.171,0.345-0.351,0.656-0.538,0.938c-0.321-0.106-0.654-0.241-1.001-0.408c-2.737-1.313-4.987-0.145-6.015,1.739l0.583,0.933
	c0.117-0.298,1.766-4.217,5.94-1.488c0,0-0.913,0.229-2.65,0.064c-1.653-0.157-3.145,1.289-3.286,1.431
	c-0.188,0.064-2.143,0.771-2.726,2.326c-0.612,1.634-1.22,2.354-1.22,2.354c-0.622-4.948,3.623-4.712,3.941-4.688l-0.583-0.933
	c-2.143,0.097-4.18,1.608-4.198,4.645c-0.002,0.385-0.027,0.743-0.073,1.078c-0.335,0.045-0.693,0.071-1.078,0.072
	c-5.685,0.034-6.024,7.149-1.735,8.783c0,0-2.825-1.975-0.357-4.442s6.927-1.242,6.059,3.404s0.086,7.098,5.021,7.983
	c0,0-6.178-1.516-3.693-8.323c0,0,1.771,0.987,1.549,3.897c0,0,1.37-2.576,0.703-4.908c2.332,0.668,4.908-0.702,4.908-0.702
	c-2.911,0.221-3.897-1.55-3.897-1.55c0.988-0.36,1.865-0.539,2.642-0.579c0.378-0.681,0.922-1.392,1.68-2.122
	c0,0,1.158,1.663-0.316,4.183c0,0,2.36-1.715,2.783-4.104c1.804,1.621,4.72,1.52,4.72,1.52c-2.714-1.077-2.825-3.101-2.825-3.101
	c7.209,0.749,5.863,6.968,5.863,6.968C94.493,94.631,92.708,92.699,88.15,91.443z M88.867,83.254c0,0-2.218-0.306-3.485,0.895
	c-1.267,1.2-2.127,1.581-2.127,1.581C84.926,80.826,88.867,83.254,88.867,83.254z M66.313,97.35c0,0-0.454-4.607,4.686-3.96
	c0,0-0.72,0.606-2.354,1.22C67.012,95.222,66.313,97.35,66.313,97.35z M69.905,94.847c0,0,1.105-0.338,2.41-1.157
	c0.818-1.305,1.158-2.41,1.158-2.41s-0.188,2.154,0.829,4.398C72.059,94.66,69.905,94.847,69.905,94.847z M77.036,100.72
	c-0.374-1.157-1.531-1.43-1.531-1.43c-0.205-1.805-1.226-2.757-1.226-2.757C77.581,98.234,77.036,100.72,77.036,100.72z
	 M79.346,98.411c0,0-2.485,0.545-4.188-2.757c0,0,0.953,1.02,2.757,1.225C77.915,96.879,78.188,98.036,79.346,98.411z
	 M81.559,93.716c-0.362,0.487-0.681,0.956-0.954,1.408c-0.525,0.047-1.087,0.129-1.685,0.24c-4.647,0.868-5.872-3.591-3.404-6.06
	c0.34-0.341,0.671-0.58,0.989-0.74c0.283-0.216,0.644-0.408,1.099-0.565C80.904,86.862,84.375,89.918,81.559,93.716z M80.273,87.029
	c0,0,1.143,0.18,2.674,0.015c1.308-0.813,2.098-1.658,2.098-1.658s-1.112,1.854-1.182,4.316
	C82.292,87.805,80.273,87.029,80.273,87.029z M84.111,95.433c0.17-1.204-0.751-1.957-0.751-1.957
	c0.606-1.711,0.107-3.015,0.107-3.015C85.689,93.438,84.111,95.433,84.111,95.433z M84.643,90.056c0,0,0.409,1.335,1.941,2.31
	c0,0-0.263,1.16,0.614,2.003C87.198,94.368,84.726,93.77,84.643,90.056z"/>
</svg>
